<svg width="1746.839990234375px" height="329.5199829101562px" xmlns="http://www.w3.org/2000/svg" viewBox="-623.4199951171875 -89.75999145507811 1746.839990234375 329.5199829101562" style="background: rgba(0, 0, 0, 0) none repeat scroll 0% 0%;" preserveAspectRatio="xMidYMid"><defs><linearGradient id="editing-sticker-gradient" x1="0.46864146101970394" y1="0.201643431389518" x2="0.5313585389802961" y2="0.798356568610482"><stop offset="0" stop-color="#fd9"></stop><stop offset="1" stop-color="#9df"></stop></linearGradient><filter id="editing-sticker" x="-100%" y="-100%" width="300%" height="300%"><feMorphology operator="erode" radius="1" in="SourceAlpha" result="alpha-erode"></feMorphology><feConvolveMatrix order="3,3" divisor="1" kernelMatrix="0 1 0 1 1 1 0 1 0" in="alpha-erode" result="alpha-round"></feConvolveMatrix><feMorphology operator="dilate" radius="3.5" in="alpha-round" result="dilate-shadow"></feMorphology><feGaussianBlur in="dilate-shadow" stdDeviation="1.5" result="shadow"></feGaussianBlur><feFlood flood-color="#fff" result="flood-sticker"></feFlood><feComposite operator="in" in="flood-sticker" in2="alpha-round" result="comp-sticker"></feComposite><feMorphology operator="dilate" radius="3" in="comp-sticker" result="morph-sticker"></feMorphology><feConvolveMatrix order="3,3" divisor="1" kernelMatrix="0 1 0 1 1 1 0 1 0" in="morph-sticker" result="sticker"></feConvolveMatrix><feMerge><feMergeNode in="shadow"></feMergeNode><feMergeNode in="sticker"></feMergeNode><feMergeNode in="SourceGraphic"></feMergeNode></feMerge></filter></defs><g filter="url(#editing-sticker)"><g transform="translate(-394.5899963378906, 145.125)"><path d="M41.33 0L1.50 0L22.81-113.70L24.87-123.42L64.89-123.42L41.33 0ZM117.25-11.03L117.25-11.03L117.25-11.03Q112.20 3.74 92.75 3.74L92.75 3.74L92.75 3.74Q78.35 3.74 68.44-13.46L68.44-13.46L68.44-13.46Q58.34-30.67 56.47-58.72L56.47-58.72L56.47-58.72Q77.04-96.31 91.26-111.83L91.26-111.83L91.26-111.83Q104.91-126.60 119.12-126.60L119.12-126.60L119.12-126.60Q126.79-126.60 132.30-122.48L132.30-122.48L132.30-122.48Q137.82-118.37 139.13-111.83L139.13-111.83L139.13-111.83Q132.77-109.21 129.78-107.15L129.78-107.15L129.78-107.15Q122.30-101.54 112.20-89.01L112.20-89.01L95.18-68.63L95.18-68.63Q91.07-63.77 89.39-61.52L89.39-61.52L89.39-61.52Q92.19-45.81 100.61-30.29L100.61-30.29L100.61-30.29Q108.65-15.52 117.25-11.03ZM203.64-31.60L203.64-31.60L203.64-31.60Q208.32-28.42 208.32-21.41L208.32-21.41L208.32-21.41Q208.32-14.40 204.76-9.91L204.76-9.91L204.76-9.91Q201.21-5.42 195.41-2.43L195.41-2.43L195.41-2.43Q183.45 3.74 170.54 3.74L170.54 3.74L170.54 3.74Q157.64 3.74 150.07 0.94L150.07 0.94L150.07 0.94Q142.49-1.87 137.44-7.11L137.44-7.11L137.44-7.11Q127.53-17.02 127.53-35.16L127.53-35.16L127.53-35.16Q127.53-63.39 142.87-80.60L142.87-80.60L142.87-80.60Q159.32-99.11 187.94-99.11L187.94-99.11L187.94-99.11Q205.70-99.11 214.49-91.63L214.49-91.63L214.49-91.63Q221.03-86.02 221.03-76.86L221.03-76.86L221.03-76.86Q221.03-43.95 164.19-43.95L164.19-43.95L164.19-43.95Q163.44-39.08 163.44-34.97L163.44-34.97L163.44-34.97Q163.44-26.37 167.27-23.09L167.27-23.09L167.27-23.09Q171.10-19.82 178.21-19.82L178.21-19.82L178.21-19.82Q185.32-19.82 192.89-23.09L192.89-23.09L192.89-23.09Q200.46-26.37 203.64-31.60ZM165.50-51.99L165.50-51.99L165.50-51.99Q178.77-51.99 186.44-60.21L186.44-60.21L186.44-60.21Q194.11-68.07 194.11-80.60L194.11-80.60L194.11-80.60Q194.11-84.90 192.52-87.24L192.52-87.24L192.52-87.24Q190.93-89.57 187.75-89.57L187.75-89.57L187.75-89.57Q184.57-89.57 181.86-88.36L181.86-88.36L181.86-88.36Q179.15-87.14 176.34-83.03L176.34-83.03L176.34-83.03Q169.42-73.68 165.50-51.99ZM295.27-92.19L295.27-92.19L295.27-92.19Q301.44-99.11 312.10-99.11L312.10-99.11L312.10-99.11Q318.65-99.11 323.70-95.56L323.70-95.56L323.70-95.56Q328.75-92.00 328.75-85.37L328.75-85.37L328.75-85.37Q328.75-78.73 326.69-71.62L326.69-71.62L326.69-71.62Q324.63-64.52 321.45-57.22L321.45-57.22L321.45-57.22Q315.10-43.01 306.31-31.23L306.31-31.23L306.31-31.23Q293.96-14.21 282.09-5.24L282.09-5.24L282.09-5.24Q270.21 3.74 257.31 3.74L257.31 3.74L257.31 3.74Q246.84 3.74 240.48 1.31L240.48 1.31L240.48 1.31Q239.36-37.96 237.96-51.99L237.96-51.99L237.96-51.99Q236.56-66.01 235.43-73.68L235.43-73.68L235.43-73.68Q233.56-88.64 227.95-92.19L227.95-92.19L227.95-92.19Q232.25-95.93 236.46-97.52L236.46-97.52L236.46-97.52Q240.67-99.11 249.36-99.11L249.36-99.11L249.36-99.11Q258.06-99.11 264.23-92.28L264.23-92.28L264.23-92.28Q270.40-85.46 271.62-73.40L271.62-73.40L271.62-73.40Q272.83-61.34 272.83-46.75L272.83-46.75L272.83-46.75Q272.83-32.16 271.71-14.59L271.71-14.59L271.71-14.59Q277.51-18.70 283.68-31.23L283.68-31.23L283.68-31.23Q292.09-48.62 295.09-69.56L295.09-69.56L295.09-69.56Q296.02-75.92 296.02-82.65L296.02-82.65L296.02-82.65Q296.02-89.39 295.27-92.19ZM378.67-10.29L378.67-10.29L378.67-10.29Q372.88 3.74 354.37 3.74L354.37 3.74L354.37 3.74Q344.83 3.74 338.84-2.81L338.84-2.81L338.84-2.81Q333.79-8.60 333.79-14.40L333.79-14.40L333.79-14.40Q333.79-29.55 340.71-59.09L340.71-59.09L347.63-95.37L385.59-99.11L374.19-40.02L374.19-40.02Q371.01-26.18 371.01-21.32L371.01-21.32L371.01-21.32Q371.01-10.66 378.67-10.29ZM351.00-121.36L351.00-121.36L351.00-121.36Q351.00-128.66 357.08-132.58L357.08-132.58L357.08-132.58Q363.15-136.51 371.94-136.51L371.94-136.51L371.94-136.51Q380.73-136.51 386.06-132.58L386.06-132.58L386.06-132.58Q391.39-128.66 391.39-121.36L391.39-121.36L391.39-121.36Q391.39-114.07 385.50-110.33L385.50-110.33L385.50-110.33Q379.61-106.59 370.82-106.59L370.82-106.59L370.82-106.59Q362.03-106.59 356.52-110.33L356.52-110.33L356.52-110.33Q351.00-114.07 351.00-121.36ZM473.67 3.74L473.67 3.74L473.67 3.74Q451.04 3.74 451.04-13.84L451.04-13.84L451.04-13.84Q451.23-18.70 452.73-26.93L452.73-26.93L456.09-44.13L456.09-44.13Q461.14-68.44 461.14-73.86L461.14-73.86L461.14-73.86Q461.14-84.71 454.78-84.71L454.78-84.71L454.78-84.71Q444.12-84.71 438.51-56.85L438.51-56.85L427.48 0L389.89 3.74L409.34-95.56L440.01-99.11L437.02-80.78L437.02-80.78Q445.81-99.11 472.74-99.11L472.74-99.11L472.74-99.11Q485.83-99.11 491.34-93.59L491.34-93.59L491.34-93.59Q496.86-88.08 496.86-75.73L496.86-75.73L496.86-75.73Q496.86-64.14 490.87-37.03L490.87-37.03L490.87-37.03Q488.07-24.87 488.07-20.29L488.07-20.29L488.07-20.29Q488.07-15.71 490.59-13.09L490.59-13.09L490.59-13.09Q493.12-10.47 496.86-10.10L496.86-10.10L496.86-10.10Q494.99-3.74 488.54 0L488.54 0L488.54 0Q482.09 3.74 473.67 3.74ZM673.95-99.11L673.95-99.11L673.95-99.11Q658.80-99.11 647.77-104.16L647.77-104.16L641.78-73.86L677.88-73.86L677.88-73.86Q677.88-63.95 672.92-57.69L672.92-57.69L672.92-57.69Q667.96-51.42 658.99-51.42L658.99-51.42L658.99-51.42Q649.26-51.42 640.29-54.98L640.29-54.98L640.29-54.98Q638.42-55.73 638.23-55.91L638.23-55.91L627.57 0L586.81 0L610.56-123.42L693.96-123.42L693.96-123.42Q693.96-112.01 688.63-105.56L688.63-105.56L688.63-105.56Q683.30-99.11 673.95-99.11ZM746.32-52.55L746.32-52.55L746.32-52.55Q753.05-64.52 753.05-76.67L753.05-76.67L753.05-76.67Q753.05-84.71 747.25-84.71L747.25-84.71L747.25-84.71Q742.76-84.71 738.09-77.04L738.09-77.04L738.09-77.04Q733.23-69.38 731.73-59.47L731.73-59.47L722.01 0L683.30 3.74L702.37-95.37L733.23-99.11L729.86-80.22L729.86-80.22Q739.02-99.11 759.59-99.11L759.59-99.11L759.59-99.11Q770.44-99.11 776.33-93.50L776.33-93.50L776.33-93.50Q782.22-87.89 782.22-76.39L782.22-76.39L782.22-76.39Q782.22-64.89 774.65-57.60L774.65-57.60L774.65-57.60Q767.07-50.30 754.17-50.30L754.17-50.30L754.17-50.30Q748.56-50.30 746.32-52.55ZM825.98 3.74L825.98 3.74L825.98 3.74Q784.84 3.74 784.84-34.97L784.84-34.97L784.84-34.97Q784.84-62.46 799.99-80.22L799.99-80.22L799.99-80.22Q816.07-99.11 843.93-99.11L843.93-99.11L843.93-99.11Q864.13-99.11 874.41-89.76L874.41-89.76L874.41-89.76Q884.70-80.41 884.70-60.77L884.70-60.77L884.70-60.77Q884.70-30.86 868.62-13.46L868.62-13.46L868.62-13.46Q852.91 3.74 825.98 3.74ZM830.84-77.61L830.84-77.61L830.84-77.61Q828.60-72.56 826.82-64.98L826.82-64.98L826.82-64.98Q825.04-57.41 822.80-45.44L822.80-45.44L822.80-45.44Q820.56-33.47 820.56-18.70L820.56-18.70L820.56-18.70Q820.56-13.84 822.15-10.66L822.15-10.66L822.15-10.66Q823.74-7.48 828.04-7.48L828.04-7.48L828.04-7.48Q832.34-7.48 835.05-9.54L835.05-9.54L835.05-9.54Q837.76-11.59 839.82-16.46L839.82-16.46L839.82-16.46Q843.56-25.06 846.55-41.05L846.55-41.05L846.55-41.05Q849.54-57.03 849.82-63.95L849.82-63.95L849.82-63.95Q850.10-70.87 850.10-76.02L850.10-76.02L850.10-76.02Q850.10-81.16 848.61-84.52L848.61-84.52L848.61-84.52Q847.11-87.89 842.90-87.89L842.90-87.89L842.90-87.89Q838.70-87.89 835.89-85.27L835.89-85.27L835.89-85.27Q833.09-82.65 830.84-77.61ZM1030.37 3.74L1030.37 3.74L1030.37 3.74Q1007.74 3.74 1007.74-13.84L1007.74-13.84L1007.74-13.84Q1007.74-21.50 1011.02-36.37L1011.02-36.37L1011.02-36.37Q1014.29-51.24 1015.41-57.22L1015.41-57.22L1015.41-57.22Q1018.03-70.87 1018.03-75.17L1018.03-75.17L1018.03-75.17Q1018.03-84.71 1010.92-84.71L1010.92-84.71L1010.92-84.71Q1006.25-84.71 1001.76-78.26L1001.76-78.26L1001.76-78.26Q997.27-71.81 995.21-58.91L995.21-58.91L983.62 0L947.16 3.74L957.25-47.12L957.25-47.12Q958.94-55.54 960.43-65.08L960.43-65.08L960.43-65.08Q961.93-74.61 961.93-76.11L961.93-76.11L961.93-76.11Q961.93-84.71 955.57-84.71L955.57-84.71L955.57-84.71Q951.27-84.71 946.59-78.35L946.59-78.35L946.59-78.35Q941.92-72.00 939.30-58.91L939.30-58.91L927.89 0L891.06 3.74L910.69-95.37L941.17-99.11L937.99-80.22L937.99-80.22Q942.85-90.32 951.83-94.72L951.83-94.72L951.83-94.72Q960.81-99.11 974.83-99.11L974.83-99.11L974.83-99.11Q982.87-99.11 988.11-95.18L988.11-95.18L988.11-95.18Q993.34-91.26 995.03-84.90L995.03-84.90L995.03-84.90Q998.21-91.44 1006.34-95.28L1006.34-95.28L1006.34-95.28Q1014.48-99.11 1024.48-99.11L1024.48-99.11L1024.48-99.11Q1034.48-99.11 1039.44-96.96L1039.44-96.96L1039.44-96.96Q1044.40-94.81 1047.39-91.26L1047.39-91.26L1047.39-91.26Q1052.44-84.71 1052.44-72.74L1052.44-72.74L1052.44-72.74Q1052.44-60.96 1047.39-36.47L1047.39-36.47L1047.39-36.47Q1044.77-24.50 1044.77-20.10L1044.77-20.10L1044.77-20.10Q1044.77-15.71 1047.29-13.09L1047.29-13.09L1047.29-13.09Q1049.82-10.47 1053.56-10.10L1053.56-10.10L1053.56-10.10Q1051.69-3.74 1045.24 0L1045.24 0L1045.24 0Q1038.79 3.74 1030.37 3.74ZM1076.09-5.61L1076.09-5.61L1076.09-5.61Q1071.70-10.47 1069.73-18.14L1069.73-18.14L1069.73-18.14Q1067.77-25.81 1067.77-38.34L1067.77-38.34L1067.77-38.34Q1067.77-50.86 1072.07-62.27L1072.07-62.27L1072.07-62.27Q1076.37-73.68 1084.23-81.91L1084.23-81.91L1084.23-81.91Q1100.31-99.11 1126.86-99.11L1126.86-99.11L1126.86-99.11Q1136.40-99.11 1143.32-95.93L1143.32-95.93L1175.30-99.11L1161.46-26.18L1161.46-26.18Q1160.90-23.94 1160.90-19.82L1160.90-19.82L1160.90-19.82Q1160.90-15.71 1163.42-13.09L1163.42-13.09L1163.42-13.09Q1165.95-10.47 1169.69-10.10L1169.69-10.10L1169.69-10.10Q1167.82-3.74 1160.99 0L1160.99 0L1160.99 0Q1154.16 3.74 1146.50 3.74L1146.50 3.74L1146.50 3.74Q1138.83 3.74 1133.69 0.84L1133.69 0.84L1133.69 0.84Q1128.55-2.06 1127.05-6.92L1127.05-6.92L1127.05-6.92Q1124.06-2.24 1117.70 0.75L1117.70 0.75L1117.70 0.75Q1111.34 3.74 1102.83 3.74L1102.83 3.74L1102.83 3.74Q1094.32 3.74 1087.41 1.50L1087.41 1.50L1087.41 1.50Q1080.49-0.75 1076.09-5.61ZM1115.55-81.53L1115.55-81.53L1115.55-81.53Q1113.40-78.17 1111.53-72.46L1111.53-72.46L1111.53-72.46Q1109.66-66.76 1106.57-51.52L1106.57-51.52L1106.57-51.52Q1103.49-36.28 1103.49-25.43L1103.49-25.43L1103.49-25.43Q1103.49-14.59 1105.17-11.41L1105.17-11.41L1105.17-11.41Q1106.85-8.23 1109.85-8.23L1109.85-8.23L1109.85-8.23Q1115.83-8.23 1120.22-13.93L1120.22-13.93L1120.22-13.93Q1124.62-19.64 1126.30-29.73L1126.30-29.73L1136.21-84.52L1136.21-84.52Q1132.29-87.89 1127.70-87.89L1127.70-87.89L1127.70-87.89Q1123.12-87.89 1120.41-86.39L1120.41-86.39L1120.41-86.39Q1117.70-84.90 1115.55-81.53ZM1264.49 3.74L1264.49 3.74L1264.49 3.74Q1241.87 3.74 1241.87-13.84L1241.87-13.84L1241.87-13.84Q1242.05-18.70 1243.55-26.93L1243.55-26.93L1246.92-44.13L1246.92-44.13Q1251.97-68.44 1251.97-73.86L1251.97-73.86L1251.97-73.86Q1251.97-84.71 1245.61-84.71L1245.61-84.71L1245.61-84.71Q1234.95-84.71 1229.34-56.85L1229.34-56.85L1218.31 0L1180.72 3.74L1200.17-95.56L1230.83-99.11L1227.84-80.78L1227.84-80.78Q1236.63-99.11 1263.56-99.11L1263.56-99.11L1263.56-99.11Q1276.65-99.11 1282.17-93.59L1282.17-93.59L1282.17-93.59Q1287.68-88.08 1287.68-75.73L1287.68-75.73L1287.68-75.73Q1287.68-64.14 1281.70-37.03L1281.70-37.03L1281.70-37.03Q1278.89-24.87 1278.89-20.29L1278.89-20.29L1278.89-20.29Q1278.89-15.71 1281.42-13.09L1281.42-13.09L1281.42-13.09Q1283.94-10.47 1287.68-10.10L1287.68-10.10L1287.68-10.10Q1285.81-3.74 1279.36 0L1279.36 0L1279.36 0Q1272.91 3.74 1264.49 3.74Z" fill="url(#editing-sticker-gradient)" stroke="#000" stroke-width="7"></path></g></g><style>text {
  font-size: 64px;
  font-family: Arial Black;
  dominant-baseline: central;
  text-anchor: middle;
}</style></svg>